<svg width="107" height="32" viewBox="0 0 107 32" fill="none" xmlns="http://www.w3.org/2000/svg">
<path d="M3.96296 0.5H103.037C104.945 0.5 106.5 2.06261 106.5 4V28C106.5 29.9374 104.945 31.5 103.037 31.5H3.96296C2.0548 31.5 0.5 29.9374 0.5 28V4C0.5 2.06261 2.0548 0.5 3.96296 0.5Z" stroke="#A6A6A6"/>
<path d="M37.6165 7.75216H35.1674V8.48816H36.8874C36.8593 8.80221 36.7282 9.09783 36.5148 9.32816C36.3487 9.49563 36.1507 9.62734 35.9327 9.71535C35.7148 9.80335 35.4814 9.84581 35.2467 9.84016C35.0095 9.84139 34.7746 9.79422 34.5559 9.70147C34.3373 9.60872 34.1394 9.47232 33.9743 9.30045C33.8093 9.12858 33.6803 8.9248 33.5952 8.70135C33.5101 8.4779 33.4707 8.23939 33.4792 8.00016C33.4707 7.76093 33.5101 7.52242 33.5952 7.29897C33.6803 7.07552 33.8093 6.87173 33.9743 6.69987C34.1394 6.528 34.3373 6.39159 34.5559 6.29885C34.7746 6.2061 35.0095 6.15892 35.2467 6.16016C35.4763 6.1531 35.7046 6.19834 35.9145 6.29252C36.1244 6.3867 36.3107 6.52739 36.4594 6.70416L36.5148 6.76816L37.0379 6.23216L36.9983 6.17616C36.7804 5.93224 36.509 5.7432 36.2057 5.62416C35.8887 5.4833 35.5455 5.41238 35.1991 5.41616C34.8664 5.41929 34.5376 5.48867 34.2315 5.62033C33.9254 5.75199 33.6481 5.94333 33.4154 6.18339C33.1827 6.42344 32.9993 6.70749 32.8756 7.01925C32.7519 7.33101 32.6903 7.66435 32.6945 8.00016C32.6903 8.34 32.7534 8.67728 32.88 8.99219C33.0067 9.30711 33.1944 9.59331 33.4321 9.83401C33.6698 10.0747 33.9528 10.2651 34.2644 10.3939C34.576 10.5227 34.91 10.5874 35.2467 10.5842C35.5804 10.5972 35.9131 10.539 36.2231 10.4136C36.5331 10.2882 36.8134 10.0982 37.0459 9.85616C37.2552 9.63549 37.4179 9.37422 37.5242 9.08819C37.6304 8.80216 37.678 8.49732 37.6641 8.19216C37.6716 8.06694 37.6716 7.94138 37.6641 7.81616L37.6165 7.75216Z" fill="black"/>
<path d="M38.3774 10.48H41.318V9.72802H39.1542V8.36802H41.104V7.63202H39.1542V6.27202H41.318V5.52002H38.3774V10.48Z" fill="black"/>
<path d="M41.7935 6.27202H43.125V10.48H43.8938V6.27202H45.2175V5.52002H41.7935V6.27202Z" fill="black"/>
<path d="M48.1975 5.52002H47.4287V10.48H48.1975V5.52002Z" fill="black"/>
<path d="M48.8081 6.27202H50.1397V10.48H50.9085V6.27202H52.2321V5.52002H48.8081V6.27202Z" fill="black"/>
<path d="M56.5993 5.41607C56.2638 5.40615 55.93 5.46803 55.6199 5.59764C55.3098 5.72725 55.0304 5.92165 54.8001 6.16807C54.564 6.40884 54.3785 6.69516 54.2546 7.00993C54.1307 7.3247 54.0709 7.66145 54.0788 8.00007C54.0709 8.33869 54.1307 8.67544 54.2546 8.99021C54.3785 9.30498 54.564 9.5913 54.8001 9.83207C55.0363 10.0706 55.3168 10.2598 55.6255 10.3889C55.9342 10.5179 56.2651 10.5844 56.5993 10.5844C56.9334 10.5844 57.2643 10.5179 57.573 10.3889C57.8817 10.2598 58.1622 10.0706 58.3985 9.83207C58.6345 9.5913 58.82 9.30498 58.9439 8.99021C59.0679 8.67544 59.1276 8.33869 59.1197 8.00007C59.1272 7.66151 59.0672 7.32489 58.9433 7.01018C58.8194 6.69548 58.6341 6.40911 58.3985 6.16807C58.1681 5.92165 57.8887 5.72725 57.5786 5.59764C57.2685 5.46803 56.9348 5.40615 56.5993 5.41607ZM58.343 8.00007C58.3534 8.24149 58.3161 8.4826 58.2331 8.70926C58.15 8.93592 58.023 9.14358 57.8595 9.32007C57.6974 9.48455 57.5048 9.61508 57.2926 9.70414C57.0804 9.79321 56.8529 9.83906 56.623 9.83906C56.3932 9.83906 56.1657 9.79321 55.9535 9.70414C55.7413 9.61508 55.5486 9.48455 55.3866 9.32007C55.2145 9.14754 55.0787 8.94167 54.9875 8.71483C54.8962 8.48798 54.8513 8.24486 54.8556 8.00007C54.8482 7.75697 54.8894 7.51487 54.9765 7.28812C55.0636 7.06137 55.195 6.8546 55.3628 6.68007C55.5249 6.51559 55.7175 6.38506 55.9297 6.29599C56.1419 6.20693 56.3695 6.16107 56.5993 6.16107C56.8291 6.16107 57.0566 6.20693 57.2688 6.29599C57.481 6.38506 57.6737 6.51559 57.8357 6.68007C58.0035 6.8546 58.1349 7.06137 58.222 7.28812C58.3092 7.51487 58.3503 7.75697 58.343 8.00007Z" fill="black"/>
<path d="M62.8763 5.52002V8.40802L62.8922 9.08802L60.6887 5.52002H59.8169V10.48H60.5936V7.40802L60.5699 6.73602L62.8604 10.44L62.8842 10.48H63.6451V5.52002H62.8763Z" fill="black"/>
<path d="M54.0072 17.4002C53.3394 17.4018 52.687 17.6032 52.1327 17.979C51.5783 18.3548 51.1468 18.8881 50.8927 19.5114C50.6385 20.1348 50.5733 20.8202 50.7051 21.4809C50.8369 22.1417 51.1599 22.7482 51.6332 23.2237C52.1065 23.6992 52.7089 24.0223 53.3642 24.1523C54.0194 24.2822 54.6982 24.2131 55.3145 23.9537C55.9309 23.6943 56.4572 23.2563 56.8269 22.695C57.1966 22.1336 57.3931 21.4743 57.3915 20.8002C57.398 20.3506 57.3148 19.9042 57.1468 19.4877C56.9788 19.0712 56.7295 18.6931 56.4137 18.3758C56.0979 18.0586 55.7221 17.8087 55.3087 17.6411C54.8952 17.4735 54.4526 17.3916 54.0072 17.4002ZM54.0072 22.8642C53.5979 22.8931 53.1894 22.7971 52.8349 22.5885C52.4804 22.38 52.1962 22.0687 52.0194 21.695C51.8425 21.3213 51.7811 20.9025 51.8431 20.4932C51.9052 20.0838 52.0878 19.7027 52.3673 19.3995C52.6467 19.0962 53.0101 18.8849 53.4102 18.7929C53.8102 18.7008 54.2284 18.7324 54.6105 18.8835C54.9925 19.0346 55.3207 19.2982 55.5523 19.64C55.784 19.9818 55.9084 20.3861 55.9094 20.8002C55.9222 21.0626 55.8827 21.325 55.7935 21.5718C55.7042 21.8186 55.5669 22.0448 55.3896 22.2372C55.2123 22.4295 54.9986 22.5841 54.7612 22.6918C54.5238 22.7995 54.2674 22.8581 54.0072 22.8642ZM46.6202 17.4002C45.9524 17.4018 45.3001 17.6032 44.7457 17.979C44.1913 18.3548 43.7598 18.8881 43.5057 19.5114C43.2516 20.1348 43.1863 20.8202 43.3181 21.4809C43.45 22.1417 43.7729 22.7482 44.2463 23.2237C44.7196 23.6992 45.3219 24.0223 45.9772 24.1523C46.6325 24.2822 47.3112 24.2131 47.9276 23.9537C48.5439 23.6943 49.0702 23.2563 49.4399 22.695C49.8097 22.1336 50.0061 21.4743 50.0046 20.8002C50.011 20.3506 49.9278 19.9042 49.7598 19.4877C49.5918 19.0712 49.3425 18.6931 49.0267 18.3758C48.7109 18.0586 48.3351 17.8087 47.9217 17.6411C47.5083 17.4735 47.0657 17.3916 46.6202 17.4002ZM46.6202 22.8642C46.2109 22.8931 45.8024 22.7971 45.4479 22.5885C45.0934 22.38 44.8093 22.0687 44.6324 21.695C44.4555 21.3213 44.3941 20.9025 44.4562 20.4932C44.5182 20.0838 44.7008 19.7027 44.9803 19.3995C45.2598 19.0962 45.6231 18.8849 46.0232 18.7929C46.4233 18.7008 46.8415 18.7324 47.2235 18.8835C47.6056 19.0346 47.9337 19.2982 48.1654 19.64C48.397 19.9818 48.5214 20.3861 48.5224 20.8002C48.5352 21.0626 48.4958 21.325 48.4065 21.5718C48.3172 21.8186 48.1799 22.0448 48.0026 22.2372C47.8253 22.4295 47.6117 22.5841 47.3742 22.6918C47.1368 22.7995 46.8804 22.8581 46.6202 22.8642ZM37.8383 18.4482V19.8882H41.2623C41.2086 20.5665 40.9293 21.2065 40.4697 21.7042C40.1262 22.0574 39.7131 22.3339 39.2571 22.5158C38.8011 22.6977 38.3123 22.781 37.8224 22.7602C36.8134 22.7602 35.8458 22.3557 35.1323 21.6355C34.4188 20.9154 34.018 19.9387 34.018 18.9202C34.018 17.9018 34.4188 16.9251 35.1323 16.2049C35.8458 15.4848 36.8134 15.0802 37.8224 15.0802C38.7897 15.0657 39.7238 15.4365 40.4221 16.1122L41.4287 15.0962C40.9563 14.6246 40.3954 14.2529 39.7789 14.0029C39.1624 13.7529 38.5026 13.6296 37.8383 13.6402C37.1337 13.6126 36.4308 13.7287 35.7717 13.9818C35.1126 14.2349 34.511 14.6196 34.0027 15.113C33.4945 15.6064 33.0902 16.1983 32.814 16.8532C32.5379 17.5081 32.3955 18.2125 32.3955 18.9242C32.3955 19.636 32.5379 20.3404 32.814 20.9953C33.0902 21.6502 33.4945 22.242 34.0027 22.7354C34.511 23.2288 35.1126 23.6136 35.7717 23.8667C36.4308 24.1197 37.1337 24.2359 37.8383 24.2082C38.5163 24.2356 39.1923 24.1178 39.8221 23.8628C40.4518 23.6077 41.0209 23.221 41.4921 22.7282C42.3244 21.8054 42.7679 20.5916 42.7286 19.3442C42.7314 19.044 42.7075 18.7441 42.6572 18.4482H37.8383ZM73.7507 19.5682C73.544 18.9544 73.1574 18.4185 72.6422 18.0313C72.127 17.6442 71.5075 17.4241 70.8656 17.4002C70.4321 17.3994 70.0029 17.4883 69.6048 17.6615C69.2066 17.8346 68.8479 18.0884 68.5508 18.4071C68.2536 18.7257 68.0244 19.1025 67.8772 19.5141C67.7301 19.9258 67.6682 20.3635 67.6953 20.8002C67.6885 21.5305 67.9159 22.2434 68.3437 22.8324C68.7714 23.4215 69.3765 23.855 70.0685 24.0683C70.7605 24.2817 71.5023 24.2633 72.1831 24.016C72.8639 23.7687 73.4471 23.3057 73.8458 22.6962L72.6965 21.8962C72.5252 22.1845 72.2822 22.4225 71.9916 22.5866C71.701 22.7508 71.373 22.8355 71.04 22.8322C70.6965 22.8465 70.3567 22.7556 70.0653 22.5715C69.7739 22.3873 69.5445 22.1184 69.4072 21.8002L73.9171 19.9202L73.7507 19.5682ZM69.1536 20.7042C69.1376 20.4557 69.1708 20.2065 69.2513 19.9711C69.3319 19.7357 69.4582 19.519 69.6228 19.3334C69.7874 19.1479 69.987 18.9974 70.2099 18.8908C70.4328 18.7841 70.6746 18.7234 70.9211 18.7122C71.1765 18.6965 71.4308 18.7572 71.6521 18.8867C71.8735 19.0162 72.0521 19.2087 72.1655 19.4402L69.1536 20.7042ZM65.4918 24.0002H66.974V14.0002H65.4918V24.0002ZM63.0665 18.1602H63.011C62.786 17.913 62.5111 17.7172 62.2049 17.5862C61.8986 17.4551 61.5681 17.3917 61.2356 17.4002C60.3695 17.4426 59.5527 17.8198 58.9545 18.4535C58.3564 19.0872 58.0227 19.9289 58.0227 20.8042C58.0227 21.6795 58.3564 22.5212 58.9545 23.155C59.5527 23.7887 60.3695 24.1658 61.2356 24.2082C61.5717 24.215 61.905 24.1469 62.2119 24.0086C62.5188 23.8703 62.7917 23.6653 63.011 23.4082H63.0665V23.8962C63.0665 25.2002 62.377 25.8962 61.2673 25.8962C60.8967 25.888 60.5368 25.7688 60.2333 25.5537C59.9299 25.3386 59.6967 25.0374 59.5632 24.6882L58.2792 25.2242C58.5166 25.826 58.9294 26.3409 59.4629 26.7009C59.9964 27.0609 60.6256 27.2489 61.2673 27.2402C63.0031 27.2402 64.4377 26.2082 64.4377 23.6962V17.6002H63.0665V18.1602ZM61.3624 22.8642C60.8431 22.8315 60.3557 22.6003 59.9994 22.2176C59.6431 21.8348 59.4448 21.3294 59.4448 20.8042C59.4448 20.2791 59.6431 19.7736 59.9994 19.3909C60.3557 19.0082 60.8431 18.7769 61.3624 18.7442C61.6162 18.7553 61.8653 18.8178 62.0947 18.9279C62.3241 19.0381 62.5292 19.1937 62.6978 19.3856C62.8664 19.5774 62.995 19.8015 63.0761 20.0445C63.1571 20.2875 63.1889 20.5445 63.1695 20.8002C63.1912 21.0568 63.161 21.3151 63.0809 21.5596C63.0008 21.804 62.8724 22.0295 62.7035 22.2225C62.5346 22.4154 62.3286 22.5717 62.0981 22.6821C61.8676 22.7924 61.6173 22.8543 61.3624 22.8642ZM80.6938 14.0002H77.143V24.0002H78.6251V20.2082H80.6938C81.1162 20.2389 81.5403 20.1813 81.9397 20.0392C82.3391 19.8971 82.7053 19.6735 83.0153 19.3822C83.3253 19.091 83.5725 18.7384 83.7416 18.3465C83.9106 17.9546 83.9979 17.5317 83.9979 17.1042C83.9979 16.6768 83.9106 16.2539 83.7416 15.862C83.5725 15.47 83.3253 15.1175 83.0153 14.8262C82.7053 14.535 82.3391 14.3114 81.9397 14.1692C81.5403 14.0271 81.1162 13.9696 80.6938 14.0002ZM80.6938 18.8002H78.6251V15.3922H80.7255C81.1753 15.3922 81.6067 15.5726 81.9248 15.8937C82.2429 16.2147 82.4216 16.6502 82.4216 17.1042C82.4216 17.5583 82.2429 17.9937 81.9248 18.3148C81.6067 18.6359 81.1753 18.8162 80.7255 18.8162L80.6938 18.8002ZM89.8403 17.3682C89.3005 17.3346 88.7629 17.4615 88.2938 17.733C87.8247 18.0046 87.4447 18.409 87.201 18.8962L88.5087 19.4482C88.6409 19.2078 88.8392 19.011 89.0797 18.8819C89.3202 18.7527 89.5926 18.6965 89.8641 18.7202C90.0522 18.6981 90.2429 18.7139 90.4249 18.7669C90.6069 18.8199 90.7766 18.9089 90.9242 19.0288C91.0717 19.1487 91.1942 19.297 91.2843 19.4652C91.3745 19.6334 91.4305 19.818 91.4492 20.0082V20.1042C90.9726 19.8514 90.4421 19.7196 89.9037 19.7202C88.4929 19.7202 87.0504 20.5202 87.0504 21.9762C87.0643 22.2857 87.1397 22.5892 87.2722 22.8687C87.4046 23.1481 87.5913 23.3979 87.8213 23.6031C88.0512 23.8083 88.3196 23.9648 88.6106 24.0633C88.9017 24.1617 89.2093 24.2001 89.5153 24.1762C89.8873 24.197 90.258 24.1176 90.5894 23.946C90.9209 23.7745 91.2013 23.5171 91.4017 23.2002H91.4492V24.0002H92.8759V20.1522C92.8759 18.4002 91.5602 17.3842 89.872 17.3842L89.8403 17.3682ZM89.658 22.8482C89.1745 22.8482 88.5008 22.6002 88.5008 22.0002C88.5008 21.2002 89.341 20.9282 90.086 20.9282C90.5568 20.9165 91.0221 21.0325 91.4334 21.2642C91.3836 21.6987 91.1795 22.1002 90.8589 22.3944C90.5383 22.6886 90.1229 22.8555 89.6897 22.8642L89.658 22.8482ZM98.0753 17.6002L96.3792 21.9362H96.3316L94.5721 17.6002H92.9869L95.6262 23.6642L94.1203 27.0322H95.7055L99.7239 17.6002H98.0753ZM84.7598 24.0002H86.234V14.0002H84.7598V24.0002Z" fill="black"/>
<path d="M8.27463 6.03207C8.02198 6.34732 7.89733 6.74763 7.92589 7.15207V24.8481C7.89892 25.2564 8.0328 25.6589 8.29841 25.9681L8.35389 26.0321L18.1503 16.1201V15.8801L8.33011 5.97607L8.27463 6.03207Z" fill="url(#paint0_linear)"/>
<path d="M21.4 19.4242L18.1504 16.1202V15.8802L21.4 12.5762L21.4714 12.6242L25.363 14.8482C26.4726 15.4802 26.4726 16.5202 25.363 17.1602L21.4872 19.3842L21.4 19.4242Z" fill="url(#paint1_linear)"/>
<path d="M21.4953 19.384L18.1506 16L8.2749 25.968C8.49887 26.1692 8.78554 26.285 9.08521 26.2952C9.38488 26.3054 9.67865 26.2095 9.91557 26.024L21.4953 19.384Z" fill="url(#paint2_linear)"/>
<path d="M21.4953 12.6242L9.91557 5.98417C9.68019 5.7961 9.38665 5.69782 9.08658 5.7066C8.7865 5.71537 8.4991 5.83066 8.2749 6.03217L18.1506 16.0002L21.4953 12.6242Z" fill="url(#paint3_linear)"/>
<path opacity="0.2" d="M21.4002 19.3042L9.91557 25.9042C9.68726 26.0781 9.40901 26.1722 9.12298 26.1722C8.83694 26.1722 8.55869 26.0781 8.33038 25.9042L8.2749 25.9602L8.33038 26.0242C8.55869 26.1981 8.83694 26.2922 9.12298 26.2922C9.40901 26.2922 9.68726 26.1981 9.91557 26.0242L21.4953 19.3842L21.4002 19.3042Z" fill="black"/>
<path opacity="0.12" d="M8.27467 25.856C8.02009 25.5387 7.89533 25.1352 7.92593 24.728V24.848C7.89897 25.2563 8.03285 25.6589 8.29845 25.968L8.35393 25.912L8.27467 25.856Z" fill="black"/>
<path opacity="0.12" d="M25.3629 17.04L21.3999 19.304L21.4712 19.384L25.3629 17.152C25.5926 17.054 25.7919 16.8952 25.9397 16.6925C26.0876 16.4897 26.1785 16.2505 26.203 16C26.1535 16.2277 26.0516 16.4404 25.9057 16.621C25.7598 16.8017 25.5738 16.9452 25.3629 17.04Z" fill="black"/>
<path opacity="0.25" d="M9.91519 6.09618L25.3628 14.9602C25.5738 15.055 25.7597 15.1985 25.9056 15.3792C26.0516 15.5598 26.1534 15.7725 26.203 16.0002C26.1785 15.7497 26.0875 15.5104 25.9397 15.3077C25.7918 15.105 25.5925 14.9462 25.3628 14.8482L9.91519 5.98418C8.81349 5.34418 7.92578 5.87218 7.92578 7.15218V7.27218C7.92578 5.99218 8.81349 5.46418 9.91519 6.09618Z" fill="black"/>
<defs>
<linearGradient id="paint0_linear" x1="17.2785" y1="6.96807" x2="3.85506" y2="20.2672" gradientUnits="userSpaceOnUse">
<stop stop-color="#00A0FF"/>
<stop offset="0.01" stop-color="#00A1FF"/>
<stop offset="0.26" stop-color="#00BEFF"/>
<stop offset="0.51" stop-color="#00D2FF"/>
<stop offset="0.76" stop-color="#00DFFF"/>
<stop offset="1" stop-color="#00E3FF"/>
</linearGradient>
<linearGradient id="paint1_linear" x1="26.8134" y1="16.0002" x2="7.64061" y2="16.0002" gradientUnits="userSpaceOnUse">
<stop stop-color="#FFE000"/>
<stop offset="0.41" stop-color="#FFBD00"/>
<stop offset="0.78" stop-color="#FFA500"/>
<stop offset="1" stop-color="#FF9C00"/>
</linearGradient>
<linearGradient id="paint2_linear" x1="19.6803" y1="17.84" x2="1.47317" y2="35.8706" gradientUnits="userSpaceOnUse">
<stop stop-color="#FF3A44"/>
<stop offset="1" stop-color="#C31162"/>
</linearGradient>
<linearGradient id="paint3_linear" x1="5.78616" y1="0.144171" x2="13.9138" y2="8.19656" gradientUnits="userSpaceOnUse">
<stop stop-color="#32A071"/>
<stop offset="0.07" stop-color="#2DA771"/>
<stop offset="0.48" stop-color="#15CF74"/>
<stop offset="0.8" stop-color="#06E775"/>
<stop offset="1" stop-color="#00F076"/>
</linearGradient>
</defs>
</svg>
