<svg width="36" height="37" fill="none" xmlns="http://www.w3.org/2000/svg"><rect x="26.156" y="20.781" width="6.563" height="2" rx="1" transform="rotate(90 26.156 20.781)" fill="#003D36"/><rect x="36" y="22.969" width="4.375" height="2" rx="1" transform="rotate(90 36 22.969)" fill="#003D36"/><rect x="29.438" y="15.313" width="12.031" height="2" rx="1" transform="rotate(90 29.438 15.313)" fill="#003D36"/><rect x="32.719" y="18.594" width="8.75" height="2" rx="1" transform="rotate(90 32.719 18.594)" fill="#003D36"/><path d="M27.877 32.066A3.501 3.501 0 0 1 24.404 36h-9.57a3.5 3.5 0 0 1-3.475-3.934l1.122-8.967a5.25 5.25 0 0 1 5.208-4.599h3.857" stroke="#003D36" stroke-width="2" stroke-linecap="round" stroke-linejoin="round"/><path d="M19.621 11.5a5.25 5.25 0 1 0 0-10.5 5.25 5.25 0 0 0 0 10.5ZM7.621 16.75a3.5 3.5 0 1 0 0-7 3.5 3.5 0 0 0 0 7Z" stroke="#003D36" stroke-width="2"/><path d="M10.869 32.5H4.5a3.499 3.499 0 0 1-3.452-4.076l.582-3.5A3.5 3.5 0 0 1 5.083 22H9" stroke="#003D36" stroke-width="2" stroke-linecap="round" stroke-linejoin="round"/></svg>