<svg width="44" height="44" viewBox="0 0 44 44" fill="none" xmlns="http://www.w3.org/2000/svg">
<path fill-rule="evenodd" clip-rule="evenodd" d="M30 30.6858C34.1835 28.0263 37 23.3319 37 18C37 9.71573 30.2843 3 22 3C13.7157 3 7 9.71573 7 18C7 23.4055 9.69564 28.0747 14 30.7096V31.5C14 34.5376 16.4624 37 19.5 37H25C27.7614 37 30 34.7614 30 32V30.6858ZM22 5C14.8203 5 9 10.8203 9 18C9 22.9214 11.5479 27.0896 15.5468 29.2961C15.9874 29.5392 16.1724 30.0658 16 30.5232V31.5C16 33.433 17.567 35 19.5 35H25C26.6569 35 28 33.6569 28 32V30.5C28 30.4757 28.0009 30.4516 28.0026 30.4278C27.8753 29.9954 28.0541 29.5161 28.4616 29.2804C32.3531 27.0293 35 22.807 35 18C35 10.8203 29.1797 5 22 5Z" fill="#003D36"/>
<path d="M17.3124 40.4958C17.3124 39.9436 17.7602 39.4958 18.3124 39.4958H25.6876C26.2398 39.4958 26.6876 39.9436 26.6876 40.4958C26.6876 41.0481 26.2398 41.4958 25.6876 41.4958H18.3124C17.7602 41.4958 17.3124 41.0481 17.3124 40.4958Z" fill="#003D36"/>
</svg>
