<svg width="38" height="36" viewBox="0 0 38 36" fill="none" xmlns="http://www.w3.org/2000/svg">
<path d="M32.5 0C35.537 0 38 2.46297 38 5.5C38 8.53703 35.537 11 32.5 11C30.7121 11 29.1234 10.1468 28.1189 8.82541L10.962 17.8503C10.9871 18.0634 11 18.2802 11 18.5C11 18.502 11 18.504 11 18.506L27.9426 27.4201C28.9314 25.9599 30.6036 25 32.5 25C35.537 25 38 27.463 38 30.5C38 33.537 35.537 36 32.5 36C29.4624 36 27 33.5373 27 30.5C27 30.073 27.0487 29.6573 27.1408 29.2582L10.6024 20.5566C9.78783 22.5751 7.80997 24 5.5 24C2.46245 24 0 21.5373 0 18.5C0 15.4627 2.46245 13 5.5 13C7.60105 13 9.42734 14.1788 10.3535 15.9109L27.2184 7.03936C27.0762 6.55087 27 6.03433 27 5.5C27 2.46273 29.4624 0 32.5 0ZM32.5 27C30.5671 27 29 28.5672 29 30.5C29 32.4328 30.5671 34 32.5 34C34.4325 34 36 32.4325 36 30.5C36 28.5675 34.4325 27 32.5 27ZM5.5 15C3.56707 15 2 16.5672 2 18.5C2 20.4328 3.56707 22 5.5 22C7.43247 22 9 20.4325 9 18.5C9 16.5675 7.43247 15 5.5 15ZM32.5 2C30.5671 2 29 3.56725 29 5.5C29 7.43275 30.5671 9 32.5 9C34.4325 9 36 7.43247 36 5.5C36 3.56753 34.4325 2 32.5 2Z" fill="#003D36"/>
</svg>
