<svg width="38" height="38" viewBox="0 0 38 38" fill="none" xmlns="http://www.w3.org/2000/svg">
<path d="M27.4193 14.8457C26.9979 15.2677 26.4608 15.5552 25.8761 15.6719C25.2913 15.7885 24.6851 15.729 24.1341 15.5009C23.5832 15.2729 23.1122 14.8864 22.7809 14.3905C22.4495 13.8946 22.2727 13.3116 22.2727 12.7151C22.2727 12.1186 22.4495 11.5356 22.7809 11.0397C23.1122 10.5438 23.5832 10.1573 24.1341 9.92926C24.6851 9.70117 25.2913 9.64168 25.8761 9.75832C26.4608 9.87496 26.9979 10.1625 27.4193 10.5845C27.9837 11.1498 28.3007 11.9161 28.3007 12.7151C28.3007 13.5141 27.9837 14.2804 27.4193 14.8457ZM21.7328 9.16747C21.0301 9.87016 20.5515 10.7655 20.3576 11.7403C20.1636 12.7151 20.263 13.7255 20.6432 14.6438C21.0233 15.5621 21.6672 16.347 22.4933 16.8992C23.3194 17.4514 24.2907 17.7462 25.2843 17.7462C26.2779 17.7462 27.2492 17.4514 28.0753 16.8992C28.9014 16.347 29.5453 15.5621 29.9255 14.6438C30.3056 13.7255 30.405 12.7151 30.2111 11.7403C30.0171 10.7655 29.5385 9.87016 28.8358 9.16747C27.8938 8.22543 26.6163 7.69622 25.2843 7.69622C23.9523 7.69622 22.6748 8.22543 21.7328 9.16747ZM22.3557 29.8804C25.0435 28.1564 27.5274 26.1336 29.7601 23.8505C30.1118 25.2876 30.5237 27.4986 30.0716 28.8754C29.3683 31.006 24.3952 35.9808 24.3952 35.9808L22.3557 29.8804ZM16.0463 30.4834L11.7865 26.2222L7.5267 21.9611C7.5267 21.9611 8.22997 16.9863 15.6445 9.57951C18.3179 6.98196 21.5036 4.97086 24.998 3.67473C28.4925 2.3786 32.2188 1.82595 35.9389 2.0521C36.1683 5.77435 35.6184 9.50352 34.3244 13.001C33.0303 16.4984 31.0207 19.6871 28.4239 22.3631C21.0195 29.7699 16.0865 30.4834 16.0865 30.4834H16.0463ZM5.62786 32.3728C5.60884 29.7965 6.41512 27.2818 7.92857 25.1972L10.3599 27.6393L12.8012 30.1317C10.7099 31.6242 8.19662 32.4094 5.62786 32.3728ZM2.02108 13.6095C2.02108 13.6095 7.04445 8.58457 9.12413 7.92127C10.4804 7.46902 12.6907 7.92127 14.1475 8.24287C11.862 10.4734 9.83943 12.9586 8.11945 15.6497L2.02108 13.6095ZM31.9805 29.5186C32.7842 27.1066 31.7494 23.3681 31.3576 22.1319C36.0654 16.4595 38.4206 9.19775 37.9382 1.84105C37.8892 1.38943 37.6887 0.967729 37.3694 0.644693C37.0502 0.321657 36.6309 0.116337 36.18 0.0622042C28.8241 -0.421573 21.5622 1.93031 15.8856 6.63488C14.6297 6.24293 10.9024 5.21783 8.49118 6.01178C6.07996 6.80573 1.84024 10.9463 0.594439 12.1925C0.40524 12.3802 0.255251 12.6037 0.153201 12.8499C0.0511505 13.0961 -0.000922582 13.3602 1.237e-05 13.6267C0.000947322 13.8933 0.0548716 14.157 0.158647 14.4025C0.262422 14.648 0.413975 14.8704 0.604486 15.0567C0.826835 15.2735 1.09448 15.4383 1.38813 15.5391L7.11478 17.4486C6.3676 18.7626 5.83511 20.1876 5.53744 21.6696C5.49212 21.9785 5.51937 22.2938 5.61703 22.5903C5.71468 22.8869 5.88006 23.1566 6.10006 23.3781L6.49188 23.7701C4.58577 26.2624 3.57683 29.3256 3.62856 32.4633C3.65067 32.9653 3.85995 33.4407 4.21513 33.796C4.57032 34.1513 5.04566 34.3607 5.54749 34.3828C8.68317 34.4283 11.7434 33.4197 14.2379 31.5186L14.6297 31.9105C14.8501 32.1291 15.1181 32.2937 15.4126 32.3913C15.7072 32.489 16.0204 32.517 16.3276 32.4733C17.8196 32.1785 19.2545 31.6457 20.5774 30.8955L22.4863 36.624C22.6539 37.1283 23.0143 37.5457 23.4888 37.7849C23.9633 38.0241 24.5131 38.0656 25.0181 37.9003C25.3176 37.8008 25.5896 37.6321 25.8118 37.4079C27.0576 36.1617 31.1566 31.9105 31.9805 29.5186Z" fill="#003D36"/>
</svg>
