<svg width="96" height="32" viewBox="0 0 96 32" fill="none" xmlns="http://www.w3.org/2000/svg">
<g clip-path="url(#clip0)">
<path fill-rule="evenodd" clip-rule="evenodd" d="M7.64916 7.79625e-07H88.3552H88.4043C88.6768 -5.38533e-06 88.9528 -1.09618e-05 89.2248 0.00149815C89.4243 0.00277149 89.628 0.00612885 89.8291 0.00944281C89.8743 0.0101889 89.9195 0.0109327 89.9644 0.0116501C90.5021 0.0176083 91.0385 0.0648842 91.5689 0.153058C92.1013 0.243394 92.6173 0.412455 93.0997 0.654656C94.0646 1.14882 94.8498 1.93215 95.345 2.89449C95.5871 3.37399 95.7545 3.88741 95.8417 4.41714C95.9312 4.94657 95.9809 5.48192 95.9906 6.01873C95.9937 6.26405 95.9937 6.51014 95.9937 6.75545C96 7.04529 96 7.33591 96 7.62888V24.3718C96 24.6671 96 24.9562 95.9937 25.2468C95.9937 25.4952 95.9937 25.7358 95.9906 25.9843C95.9809 26.5211 95.9312 27.0564 95.8417 27.5858C95.7548 28.1159 95.5873 28.6296 95.345 29.1093C95.099 29.5867 94.7791 30.0225 94.3971 30.4007C94.018 30.7822 93.58 31.1005 93.0997 31.3437C92.6173 31.5865 92.1014 31.7566 91.5689 31.8483C91.0384 31.9358 90.502 31.983 89.9644 31.9897C89.7199 31.9952 89.4692 31.9983 89.2248 31.9983C88.9365 31.9999 88.6435 31.9999 88.3552 31.9999H7.64916C7.35499 31.9999 7.06431 31.9999 6.77091 31.9983C6.52531 31.9983 6.28166 31.9952 6.03369 31.9897C5.49503 31.9827 4.95765 31.9354 4.42607 31.8483C3.89526 31.7572 3.3812 31.5871 2.9011 31.3437C2.42042 31.1007 1.98198 30.7823 1.60254 30.4007C1.21959 30.024 0.900381 29.5878 0.65732 29.1093C0.413243 28.6299 0.244152 28.1162 0.155916 27.5858C0.0665971 27.0565 0.0185325 26.5211 0.012154 25.9843C0.00706773 25.8146 0.00508941 25.6485 0.00309543 25.481C0.0021708 25.4034 0.00124281 25.3255 0 25.2468V6.75545C0.00125754 6.67682 0.00219276 6.5981 0.00312831 6.51935C0.00511125 6.35245 0.00709569 6.18542 0.012154 6.01877C0.0185306 5.482 0.0665952 4.94653 0.155916 4.41717C0.244397 3.88714 0.413478 3.37368 0.65732 2.89452C0.900491 2.41441 1.21966 1.97651 1.60254 1.59765C1.98343 1.21773 2.42158 0.899577 2.9011 0.654728C3.3812 0.411933 3.89532 0.242827 4.42607 0.15313C4.95756 0.065343 5.49499 0.0180835 6.03369 0.0117621C6.08517 0.01095 6.13646 0.0101061 6.18763 0.00926435C6.38291 0.00605159 6.5763 0.00286998 6.77091 0.00160215C7.06432 7.79625e-07 7.35497 7.79625e-07 7.64916 7.79625e-07ZM6.31511 30.99C6.55609 30.9954 6.7931 30.9984 7.03598 30.9984L88.0995 31L88.9636 30.9984C89.201 30.9984 89.4455 30.9954 89.679 30.99C90.1783 30.9841 90.6763 30.9413 91.1691 30.8621C91.6318 30.7849 92.08 30.6395 92.4987 30.4309C92.912 30.2243 93.2886 29.9535 93.6143 29.629C93.9406 29.3109 94.2138 28.9441 94.4239 28.5422C94.6348 28.13 94.78 27.6882 94.8543 27.2325C94.9358 26.7519 94.9813 26.266 94.9906 25.7789C94.9937 25.5384 94.9937 25.3048 94.9937 25.0497C95 24.7694 95 24.4914 95 24.2065V7.79269C95 7.51046 95 7.23053 94.9937 6.93643V6.93409C94.9937 6.69743 94.9937 6.45969 94.9914 6.23832C94.9819 5.74229 94.9356 5.24762 94.8528 4.75823C94.7777 4.30846 94.6339 3.87246 94.4262 3.46503C94.0015 2.65024 93.3284 1.98661 92.5011 1.56714C92.0812 1.35968 91.6323 1.21487 91.1691 1.13748C90.6792 1.05839 90.184 1.01576 89.6876 1.00996L88.9597 1H7.03637L6.31707 1.00958C5.81614 1.01568 5.31638 1.05869 4.82199 1.13824C4.36342 1.21468 3.91914 1.35849 3.50402 1.56484C3.09106 1.77298 2.71384 2.04357 2.38612 2.36674C2.05804 2.68686 1.78476 3.0571 1.57689 3.46311C1.36584 3.87338 1.21975 4.31297 1.14366 4.76665C1.0619 5.25206 1.01779 5.74288 1.01171 6.23486C1.00705 6.39417 1 6.93643 1 6.93643V25.0536C1 25.0536 1.00662 25.6043 1.01167 25.7697C1.01802 26.2625 1.06239 26.754 1.1444 27.2402C1.22034 27.6926 1.36632 28.131 1.57726 28.5399C1.7859 28.9462 2.0607 29.3161 2.39077 29.6351C2.71614 29.9579 3.09215 30.2271 3.50441 30.4324C3.92048 30.6394 4.36561 30.7843 4.8251 30.8621C5.31788 30.9409 5.81591 30.9836 6.31511 30.99Z" fill="#A6A6A6"/>
<path d="M19.8154 16.2408C19.824 15.5731 20.0014 14.9184 20.331 14.3377C20.6606 13.7569 21.1318 13.2689 21.7006 12.9192C21.3392 12.4031 20.8625 11.9783 20.3082 11.6787C19.754 11.379 19.1375 11.2128 18.5077 11.1931C17.1643 11.052 15.862 11.9969 15.1774 11.9969C14.4796 11.9969 13.4256 11.2071 12.2906 11.2304C11.5564 11.2541 10.841 11.4676 10.2139 11.8501C9.58677 12.2325 9.06943 12.7709 8.71225 13.4127C7.16505 16.0914 8.31912 20.0283 9.80121 22.1936C10.5427 23.2538 11.4094 24.4382 12.5433 24.3962C13.653 24.3502 14.0674 23.6886 15.4068 23.6886C16.7338 23.6886 17.1227 24.3962 18.2796 24.3695C19.4703 24.3502 20.2205 23.3045 20.936 22.2342C21.4688 21.4787 21.8788 20.6437 22.1508 19.7602C21.459 19.4676 20.8687 18.9779 20.4534 18.352C20.0381 17.7262 19.8162 16.9919 19.8154 16.2408Z" fill="black"/>
<path d="M17.6305 9.76906C18.2797 8.98969 18.5995 7.98795 18.5221 6.97656C17.5302 7.08074 16.614 7.55479 15.956 8.30425C15.6343 8.67038 15.3879 9.09633 15.2309 9.55775C15.0739 10.0192 15.0094 10.507 15.041 10.9934C15.5371 10.9985 16.0279 10.8909 16.4765 10.6789C16.925 10.4668 17.3196 10.1557 17.6305 9.76906Z" fill="black"/>
<path d="M33.841 21.7116H30.0543L29.1449 24.3968H27.541L31.1277 14.4624H32.7941L36.3809 24.3968H34.7496L33.841 21.7116ZM30.4465 20.4726H33.4481L31.9684 16.1148H31.927L30.4465 20.4726Z" fill="black"/>
<path d="M44.1283 20.7761C44.1283 23.0269 42.9237 24.473 41.1057 24.473C40.6452 24.4971 40.1872 24.391 39.7841 24.1669C39.3811 23.9428 39.0493 23.6097 38.8268 23.2058H38.7924V26.7933H37.3057V17.1543H38.7448V18.359H38.7721C39.0049 17.957 39.3422 17.6256 39.7483 17.4002C40.1544 17.1747 40.6141 17.0635 41.0783 17.0785C42.9166 17.0785 44.1283 18.5316 44.1283 20.7761ZM42.6002 20.7761C42.6002 19.3097 41.8424 18.3457 40.6861 18.3457C39.5502 18.3457 38.7862 19.3301 38.7862 20.7761C38.7862 22.2355 39.5502 23.2129 40.6861 23.2129C41.8424 23.2129 42.6002 22.2558 42.6002 20.7761Z" fill="black"/>
<path d="M52.1 20.7761C52.1 23.0269 50.8953 24.473 49.0774 24.473C48.6168 24.4971 48.1588 24.391 47.7558 24.1669C47.3528 23.9428 47.021 23.6097 46.7985 23.2058H46.7641V26.7933H45.2773V17.1543H46.7164V18.3589H46.7437C46.9765 17.957 47.3139 17.6256 47.72 17.4002C48.1261 17.1747 48.5857 17.0635 49.05 17.0785C50.8883 17.0785 52.1 18.5316 52.1 20.7761ZM50.5719 20.7761C50.5719 19.3097 49.8141 18.3457 48.6578 18.3457C47.5219 18.3457 46.7578 19.33 46.7578 20.7761C46.7578 22.2355 47.5219 23.2129 48.6578 23.2129C49.8141 23.2129 50.5719 22.2558 50.5719 20.7761H50.5719Z" fill="black"/>
<path d="M57.3691 21.6289C57.4792 22.6141 58.4363 23.2609 59.7441 23.2609C60.9972 23.2609 61.8988 22.6141 61.8988 21.7258C61.8988 20.9547 61.355 20.493 60.0675 20.1766L58.78 19.8664C56.9558 19.4258 56.1089 18.5727 56.1089 17.1883C56.1089 15.4742 57.6027 14.2969 59.7238 14.2969C61.823 14.2969 63.262 15.4742 63.3105 17.1883H61.8097C61.7198 16.1969 60.9003 15.5984 59.7026 15.5984C58.505 15.5984 57.6855 16.2039 57.6855 17.0852C57.6855 17.7875 58.2089 18.2008 59.4894 18.5172L60.5839 18.7859C62.6222 19.2679 63.469 20.0867 63.469 21.5398C63.469 23.3984 61.9886 24.5625 59.6339 24.5625C57.4308 24.5625 55.9433 23.4258 55.8472 21.6289L57.3691 21.6289Z" fill="black"/>
<path d="M66.6772 15.4399V17.154H68.0546V18.3313H66.6772V22.3243C66.6772 22.9446 66.953 23.2337 67.5585 23.2337C67.722 23.2308 67.8852 23.2194 68.0475 23.1993V24.3696C67.7753 24.4205 67.4986 24.4435 67.2218 24.4384C65.7554 24.4384 65.1835 23.8876 65.1835 22.4829V18.3313H64.1304V17.154H65.1835V15.4399H66.6772Z" fill="black"/>
<path d="M68.8516 20.7759C68.8516 18.497 70.1937 17.0649 72.2867 17.0649C74.3867 17.0649 75.7227 18.4969 75.7227 20.7759C75.7227 23.061 74.3938 24.4868 72.2867 24.4868C70.1804 24.4868 68.8516 23.061 68.8516 20.7759ZM74.2078 20.7759C74.2078 19.2126 73.4914 18.2899 72.2867 18.2899C71.082 18.2899 70.3664 19.2196 70.3664 20.7759C70.3664 22.3454 71.082 23.261 72.2867 23.261C73.4914 23.261 74.2078 22.3454 74.2078 20.7759H74.2078Z" fill="black"/>
<path d="M76.9502 17.1542H78.3682V18.387H78.4026C78.4985 18.002 78.7241 17.6617 79.0413 17.4234C79.3586 17.1851 79.7482 17.0633 80.1448 17.0784C80.3161 17.0778 80.4869 17.0964 80.6541 17.1339V18.5245C80.4378 18.4584 80.2122 18.4281 79.9861 18.4347C79.7701 18.4259 79.5548 18.464 79.355 18.5463C79.1551 18.6286 78.9754 18.7532 78.8282 18.9115C78.681 19.0698 78.5698 19.2581 78.5023 19.4634C78.4348 19.6688 78.4125 19.8863 78.4369 20.1011V24.3972H76.9502L76.9502 17.1542Z" fill="black"/>
<path d="M87.5072 22.2696C87.3072 23.5845 86.0268 24.4868 84.3885 24.4868C82.2814 24.4868 80.9736 23.0751 80.9736 20.8103C80.9736 18.5384 82.2885 17.0649 84.326 17.0649C86.3299 17.0649 87.5901 18.4415 87.5901 20.6376V21.147H82.4744V21.2368C82.4508 21.5034 82.4842 21.7719 82.5723 22.0246C82.6605 22.2773 82.8014 22.5083 82.9856 22.7023C83.1699 22.8964 83.3934 23.049 83.6412 23.15C83.889 23.2511 84.1554 23.2982 84.4229 23.2884C84.7742 23.3213 85.1268 23.2399 85.4281 23.0564C85.7295 22.8728 85.9636 22.5969 86.0955 22.2696L87.5072 22.2696ZM82.4814 20.1079H86.1025C86.1159 19.8682 86.0796 19.6284 85.9958 19.4034C85.9121 19.1784 85.7827 18.9732 85.6159 18.8006C85.4491 18.628 85.2484 18.4917 85.0264 18.4004C84.8044 18.309 84.566 18.2645 84.326 18.2696C84.0839 18.2682 83.8439 18.3147 83.6198 18.4065C83.3958 18.4983 83.1922 18.6335 83.0207 18.8044C82.8492 18.9754 82.7133 19.1785 82.6207 19.4023C82.5282 19.626 82.4808 19.8658 82.4814 20.1079V20.1079Z" fill="black"/>
<path d="M30.2613 6.9854C30.573 6.96303 30.8858 7.01012 31.1771 7.12326C31.4684 7.23641 31.7309 7.41279 31.9458 7.63969C32.1606 7.86659 32.3225 8.13835 32.4196 8.43537C32.5167 8.73239 32.5467 9.04726 32.5074 9.35727C32.5074 10.8823 31.6832 11.7589 30.2613 11.7589H28.5371V6.9854H30.2613ZM29.2785 11.0838H30.1785C30.4012 11.0971 30.6241 11.0606 30.831 10.9769C31.0378 10.8932 31.2234 10.7645 31.3741 10.6C31.5249 10.4355 31.6372 10.2395 31.7027 10.0262C31.7681 9.81295 31.7852 9.58774 31.7527 9.367C31.7829 9.14713 31.7641 8.92331 31.6976 8.71158C31.6311 8.49985 31.5186 8.30545 31.3681 8.1423C31.2177 7.97916 31.033 7.85131 30.8273 7.76792C30.6217 7.68454 30.4001 7.64767 30.1785 7.65997H29.2785V11.0838Z" fill="black"/>
<path d="M33.344 9.95602C33.3213 9.71928 33.3484 9.48043 33.4235 9.25477C33.4986 9.02912 33.62 8.82164 33.7799 8.64566C33.9399 8.46967 34.1348 8.32906 34.3523 8.23284C34.5698 8.13662 34.805 8.08691 35.0428 8.08691C35.2806 8.08691 35.5158 8.13662 35.7333 8.23284C35.9508 8.32906 36.1457 8.46967 36.3057 8.64566C36.4657 8.82164 36.5871 9.02912 36.6621 9.25477C36.7372 9.48043 36.7643 9.71928 36.7416 9.95602C36.7647 10.193 36.738 10.4322 36.6631 10.6582C36.5882 10.8842 36.4669 11.0921 36.3069 11.2684C36.1469 11.4447 35.9518 11.5856 35.7341 11.6821C35.5164 11.7785 35.2809 11.8283 35.0428 11.8283C34.8047 11.8283 34.5692 11.7785 34.3515 11.6821C34.1338 11.5856 33.9387 11.4447 33.7787 11.2684C33.6187 11.0921 33.4974 10.8842 33.4225 10.6582C33.3477 10.4322 33.3209 10.193 33.344 9.95602ZM36.0104 9.95602C36.0104 9.17516 35.6596 8.71852 35.044 8.71852C34.426 8.71852 34.0784 9.17516 34.0784 9.95602C34.0784 10.7431 34.426 11.1963 35.044 11.1963C35.6596 11.1962 36.0104 10.74 36.0104 9.95602H36.0104Z" fill="black"/>
<path d="M41.26 11.7586H40.5225L39.7779 9.10547H39.7217L38.9803 11.7586H38.2498L37.2568 8.15625H37.9779L38.6232 10.905H38.6764L39.417 8.15625H40.099L40.8397 10.905H40.8959L41.5381 8.15625H42.249L41.26 11.7586Z" fill="black"/>
<path d="M43.084 8.15609H43.7684V8.72835H43.8215C43.9116 8.52282 44.0636 8.35052 44.2563 8.23548C44.449 8.12043 44.6728 8.06837 44.8965 8.08655C45.0718 8.07338 45.2478 8.0998 45.4114 8.16388C45.5751 8.22796 45.7223 8.32804 45.842 8.45672C45.9618 8.58539 46.051 8.73936 46.1032 8.90722C46.1554 9.07507 46.1691 9.25251 46.1434 9.42639V11.7584H45.4324V9.60492C45.4324 9.02602 45.1809 8.73812 44.6551 8.73812C44.5361 8.73258 44.4173 8.75283 44.3068 8.7975C44.1964 8.84216 44.0969 8.91018 44.0152 8.99689C43.9335 9.0836 43.8715 9.18694 43.8335 9.29985C43.7955 9.41275 43.7823 9.53254 43.7949 9.65101V11.7584H43.084L43.084 8.15609Z" fill="black"/>
<path d="M47.2754 6.75H47.9863V11.7586H47.2754V6.75Z" fill="black"/>
<path d="M48.9738 9.95608C48.9512 9.71933 48.9783 9.48047 49.0534 9.2548C49.1285 9.02914 49.2499 8.82166 49.4099 8.64567C49.5699 8.46968 49.7648 8.32906 49.9823 8.23284C50.1998 8.13662 50.435 8.08691 50.6729 8.08691C50.9107 8.08691 51.1459 8.13662 51.3634 8.23284C51.5809 8.32906 51.7759 8.46968 51.9358 8.64567C52.0958 8.82166 52.2172 9.02914 52.2923 9.2548C52.3674 9.48047 52.3945 9.71933 52.3719 9.95608C52.3949 10.1931 52.3682 10.4323 52.2933 10.6583C52.2184 10.8843 52.097 11.0921 51.937 11.2685C51.777 11.4448 51.5819 11.5857 51.3641 11.6821C51.1464 11.7785 50.911 11.8284 50.6729 11.8284C50.4348 11.8284 50.1993 11.7785 49.9816 11.6821C49.7639 11.5857 49.5687 11.4448 49.4087 11.2685C49.2487 11.0921 49.1274 10.8843 49.0525 10.6583C48.9776 10.4323 48.9508 10.1931 48.9738 9.95608ZM51.6402 9.95608C51.6402 9.17523 51.2895 8.71859 50.6738 8.71859C50.0559 8.71859 49.7082 9.17523 49.7082 9.95609C49.7082 10.7432 50.0559 11.1963 50.6738 11.1963C51.2895 11.1963 51.6402 10.7401 51.6402 9.95608H51.6402Z" fill="black"/>
<path d="M53.1206 10.74C53.1206 10.0916 53.6034 9.71777 54.4604 9.66464L55.4362 9.60839V9.29746C55.4362 8.91699 55.1847 8.70215 54.6987 8.70215C54.3019 8.70215 54.0269 8.84785 53.948 9.10254H53.2597C53.3323 8.48379 53.9144 8.08691 54.7315 8.08691C55.6347 8.08691 56.144 8.53651 56.144 9.29746V11.7588H55.4597V11.2525H55.4034C55.2892 11.4341 55.1289 11.5822 54.9388 11.6815C54.7487 11.7809 54.5357 11.828 54.3214 11.8181C54.1702 11.8339 54.0173 11.8177 53.8727 11.7708C53.7281 11.7238 53.5949 11.6471 53.4818 11.5455C53.3687 11.4439 53.2781 11.3198 53.2159 11.181C53.1537 11.0423 53.1212 10.8921 53.1206 10.74ZM55.4362 10.4322V10.131L54.5565 10.1873C54.0604 10.2205 53.8354 10.3892 53.8354 10.7068C53.8354 11.031 54.1167 11.2197 54.5034 11.2197C54.6168 11.2312 54.7312 11.2197 54.84 11.1861C54.9488 11.1524 55.0498 11.0972 55.1368 11.0237C55.2238 10.9502 55.2952 10.86 55.3466 10.7584C55.3981 10.6568 55.4285 10.5459 55.4362 10.4322Z" fill="black"/>
<path d="M57.0781 9.95587C57.0781 8.81759 57.6633 8.0965 58.5734 8.0965C58.7986 8.08612 59.022 8.14005 59.2176 8.25196C59.4132 8.36388 59.573 8.52916 59.6781 8.7285H59.7313V6.75H60.4422V11.7586H59.7609V11.1894H59.7047C59.5914 11.3874 59.4261 11.5507 59.2267 11.6615C59.0273 11.7722 58.8014 11.8264 58.5734 11.818C57.657 11.818 57.0781 11.0969 57.0781 9.95587ZM57.8125 9.95587C57.8125 10.7199 58.1727 11.1797 58.775 11.1797C59.3742 11.1797 59.7446 10.7133 59.7446 9.959C59.7446 9.20822 59.3703 8.73517 58.775 8.73517C58.1766 8.73517 57.8125 9.19806 57.8125 9.95587H57.8125Z" fill="black"/>
<path d="M63.385 9.95602C63.3623 9.71928 63.3894 9.48043 63.4645 9.25477C63.5396 9.02912 63.661 8.82164 63.8209 8.64566C63.9809 8.46967 64.1758 8.32906 64.3933 8.23284C64.6108 8.13662 64.846 8.08691 65.0838 8.08691C65.3216 8.08691 65.5568 8.13662 65.7743 8.23284C65.9918 8.32906 66.1868 8.46967 66.3467 8.64566C66.5067 8.82164 66.6281 9.02912 66.7031 9.25477C66.7782 9.48043 66.8053 9.71928 66.7827 9.95602C66.8057 10.193 66.779 10.4322 66.7041 10.6582C66.6292 10.8842 66.5079 11.0921 66.3479 11.2684C66.1879 11.4447 65.9928 11.5856 65.7751 11.6821C65.5574 11.7785 65.3219 11.8283 65.0838 11.8283C64.8457 11.8283 64.6103 11.7785 64.3926 11.6821C64.1749 11.5856 63.9797 11.4447 63.8197 11.2684C63.6597 11.0921 63.5384 10.8842 63.4635 10.6582C63.3887 10.4322 63.3619 10.193 63.385 9.95602ZM66.0514 9.95602C66.0514 9.17516 65.7006 8.71852 65.085 8.71852C64.467 8.71852 64.1194 9.17516 64.1194 9.95602C64.1194 10.7431 64.467 11.1963 65.085 11.1963C65.7006 11.1962 66.0514 10.74 66.0514 9.95602Z" fill="black"/>
<path d="M67.7358 8.15609H68.4202V8.72835H68.4733C68.5635 8.52282 68.7155 8.35052 68.9082 8.23548C69.1009 8.12043 69.3247 8.06837 69.5483 8.08655C69.7236 8.07338 69.8996 8.0998 70.0633 8.16388C70.227 8.22796 70.3741 8.32804 70.4939 8.45672C70.6136 8.58539 70.7029 8.73936 70.7551 8.90722C70.8072 9.07507 70.8209 9.25251 70.7952 9.42639V11.7584H70.0843V9.60492C70.0843 9.02602 69.8327 8.73812 69.3069 8.73812C69.1879 8.73258 69.0691 8.75283 68.9587 8.7975C68.8482 8.84216 68.7488 8.91018 68.6671 8.99689C68.5854 9.0836 68.5234 9.18694 68.4854 9.29985C68.4473 9.41275 68.4342 9.53254 68.4468 9.65101V11.7584H67.7358V8.15609Z" fill="black"/>
<path d="M74.8114 7.25928V8.17256H75.5919V8.77139H74.8114V10.6237C74.8114 11.0011 74.9669 11.1663 75.3208 11.1663C75.4114 11.166 75.5019 11.1605 75.5919 11.1499V11.7421C75.4642 11.7649 75.3349 11.7771 75.2052 11.7784C74.4145 11.7784 74.0997 11.5003 74.0997 10.8058V8.77136H73.5278V8.17253H74.0997V7.25928H74.8114Z" fill="black"/>
<path d="M76.5645 6.75H77.2691V8.73516H77.3254C77.4199 8.5277 77.5761 8.35443 77.7726 8.23895C77.9692 8.12347 78.1966 8.07141 78.4238 8.08985C78.5982 8.08036 78.7725 8.10947 78.9343 8.1751C79.0961 8.24074 79.2415 8.34128 79.36 8.46955C79.4784 8.59782 79.5672 8.75066 79.6198 8.91717C79.6724 9.08367 79.6877 9.25974 79.6644 9.43282V11.7586H78.9528V9.6082C78.9528 9.03281 78.6848 8.7414 78.1825 8.7414C78.0603 8.73138 77.9374 8.74818 77.8223 8.79062C77.7073 8.83306 77.603 8.90013 77.5166 8.98711C77.4302 9.0741 77.3638 9.17892 77.3222 9.29423C77.2805 9.40954 77.2646 9.53256 77.2754 9.65468V11.7586H76.5645L76.5645 6.75Z" fill="black"/>
<path d="M83.8092 10.7862C83.7126 11.1154 83.5033 11.4002 83.218 11.5907C82.9326 11.7812 82.5894 11.8654 82.2483 11.8284C82.0109 11.8346 81.7751 11.7892 81.5571 11.6952C81.3391 11.6011 81.1442 11.4608 80.9858 11.2839C80.8275 11.107 80.7096 10.8977 80.6402 10.6707C80.5709 10.4436 80.5518 10.2042 80.5842 9.96901C80.5526 9.7331 80.5721 9.49315 80.6412 9.26541C80.7104 9.03768 80.8277 8.82746 80.9852 8.649C81.1427 8.47055 81.3367 8.32801 81.5541 8.23104C81.7715 8.13408 82.0071 8.08494 82.2451 8.08697C83.2475 8.08697 83.8522 8.77177 83.8522 9.90297V10.151H81.3084V10.1909C81.2973 10.3231 81.3139 10.4561 81.3572 10.5815C81.4005 10.7069 81.4695 10.8219 81.5599 10.9191C81.6502 11.0162 81.7598 11.0935 81.8817 11.1458C82.0036 11.1981 82.1351 11.2244 82.2678 11.2229C82.4379 11.2433 82.6101 11.2127 82.7628 11.1349C82.9154 11.0571 83.0414 10.9358 83.1248 10.7862L83.8092 10.7862ZM81.3084 9.62525H83.1279C83.1369 9.50435 83.1205 9.38291 83.0797 9.26874C83.0389 9.15456 82.9747 9.05018 82.8912 8.96229C82.8077 8.87441 82.7068 8.80496 82.5948 8.75842C82.4829 8.71188 82.3624 8.68928 82.2412 8.69205C82.1183 8.69051 81.9962 8.7136 81.8823 8.75995C81.7684 8.80631 81.665 8.87499 81.578 8.96197C81.4911 9.04894 81.4225 9.15243 81.3762 9.26635C81.3299 9.38026 81.3068 9.5023 81.3084 9.62525H81.3084Z" fill="black"/>
</g>
<defs>
<clipPath id="clip0">
<rect width="96" height="32" fill="white"/>
</clipPath>
</defs>
</svg>
