<svg width="28" height="41" fill="none" xmlns="http://www.w3.org/2000/svg"><path d="M5.137 9.892V5.083A3.083 3.083 0 0 1 8.22 2h15.417a3.083 3.083 0 0 1 3.083 3.083v30.833A3.083 3.083 0 0 1 23.637 39H8.22a3.083 3.083 0 0 1-3.083-3.084V25.64" stroke="#003D36" stroke-width="2.056" stroke-linecap="round"/><rect x="12.332" y="32.834" width="7.194" height="2.056" rx="1.028" fill="#003D36"/><path d="m1.997 15.854 2.501 2.387 6.866-6.59a1.212 1.212 0 0 1 1.655 0 1.083 1.083 0 0 1 0 1.579l-7.622 7.274a1.342 1.342 0 0 1-1.837 0L.342 17.433a1.082 1.082 0 0 1 0-1.58 1.212 1.212 0 0 1 1.655 0Z" fill="#003D36"/></svg>