<svg width="32" height="36" viewBox="0 0 32 36" fill="none" xmlns="http://www.w3.org/2000/svg">
<path d="M30.3205 5.82932L16.5392 0.107499C16.194 -0.0357979 15.8059 -0.0358682 15.4608 0.107499L1.67952 5.82932C1.15464 6.04729 0.8125 6.55973 0.8125 7.12806V14.0837C0.8125 23.6612 6.60126 32.2764 15.4686 35.8957C15.8092 36.0347 16.1908 36.0347 16.5314 35.8957C25.3986 32.2765 31.1875 23.6613 31.1875 14.0837V7.12806C31.1875 6.55973 30.8454 6.04729 30.3205 5.82932ZM29 14.0837C29 23 23.5938 30.1544 16 33.5C8.60917 30.2438 3 23 3 14.0837V7.5L16 2.36198L29 7.5V14.0837Z" fill="#003D36"/>
<path d="M14.1949 19.5976L14.3363 19.739L14.4777 19.5976L20.5221 13.5533L20.3819 13.4131L20.5221 13.5533C20.9931 13.0823 21.7569 13.0822 22.228 13.5533C22.6991 14.0244 22.699 14.7881 22.2279 15.2592L22.2279 15.2592L15.1893 22.2978C14.7181 22.769 13.9544 22.7688 13.4834 22.2978L9.55333 18.3678C9.08222 17.8967 9.08223 17.1329 9.55332 16.6619C10.0244 16.1908 10.7882 16.1908 11.2592 16.6619L11.2592 16.6619L14.1949 19.5976Z" fill="#003D36" stroke="white" stroke-width="0.4"/>
</svg>
