<svg width="24" height="24" viewBox="0 0 24 24" fill="none" xmlns="http://www.w3.org/2000/svg">
<path fill-rule="evenodd" clip-rule="evenodd" d="M19 18H7C5.89543 18 5 17.1046 5 16V7C5 5.89543 5.89543 5 7 5H10.4376C10.9796 5 11.4985 5.22002 11.8753 5.60968L13.5714 7.36364H19C20.1046 7.36364 21 8.25907 21 9.36364V16C21 17.1046 20.1046 18 19 18ZM13.1474 8.36364H19C19.5523 8.36364 20 8.81135 20 9.36364V16C20 16.5523 19.5523 17 19 17H7C6.44772 17 6 16.5523 6 16V7C6 6.44771 6.44771 6 7 6H10.4376C10.7086 6 10.968 6.11001 11.1564 6.30484L13.1474 8.36364Z" fill="#003D36"/>
<path d="M4 10.5C4 10.2239 3.77614 10 3.5 10C3.22386 10 3 10.2239 3 10.5V17.5C3 18.8807 4.11929 20 5.5 20H13.5C13.7761 20 14 19.7761 14 19.5C14 19.2239 13.7761 19 13.5 19H5.5C4.67157 19 4 18.3284 4 17.5V10.5Z" fill="#003D36"/>

</svg>
