<svg width="30" height="38" viewBox="0 0 30 38" fill="none" xmlns="http://www.w3.org/2000/svg">
<path d="M19 15H11C10.7348 15 10.4804 14.8946 10.2929 14.7071C10.1054 14.5196 10 14.2652 10 14C10 13.7348 10.1054 13.4804 10.2929 13.2929C10.4804 13.1054 10.7348 13 11 13H19C19.2652 13 19.5196 13.1054 19.7071 13.2929C19.8946 13.4804 20 13.7348 20 14C20 14.2652 19.8946 14.5196 19.7071 14.7071C19.5196 14.8946 19.2652 15 19 15ZM24 19C24 18.7348 23.8946 18.4804 23.7071 18.2929C23.5196 18.1054 23.2652 18 23 18H7C6.73478 18 6.48043 18.1054 6.29289 18.2929C6.10536 18.4804 6 18.7348 6 19C6 19.2652 6.10536 19.5196 6.29289 19.7071C6.48043 19.8946 6.73478 20 7 20H23C23.2652 20 23.5196 19.8946 23.7071 19.7071C23.8946 19.5196 24 19.2652 24 19ZM24 24C24 23.7348 23.8946 23.4804 23.7071 23.2929C23.5196 23.1054 23.2652 23 23 23H7C6.73478 23 6.48043 23.1054 6.29289 23.2929C6.10536 23.4804 6 23.7348 6 24C6 24.2652 6.10536 24.5196 6.29289 24.7071C6.48043 24.8946 6.73478 25 7 25H23C23.2652 25 23.5196 24.8946 23.7071 24.7071C23.8946 24.5196 24 24.2652 24 24ZM30 7.67V37C30 37.2652 29.8946 37.5196 29.7071 37.7071C29.5196 37.8946 29.2652 38 29 38H1C0.734784 38 0.48043 37.8946 0.292893 37.7071C0.105357 37.5196 0 37.2652 0 37V1C0 0.734784 0.105357 0.48043 0.292893 0.292893C0.48043 0.105357 0.734784 0 1 0L22.33 0C22.5819 0.00877453 22.8212 0.11235 23 0.29L29.71 7C29.8876 7.1788 29.9912 7.4181 30 7.67ZM23 3.08V7H26.92L23 3.08ZM28 36V9H22C21.7348 9 21.4804 8.89464 21.2929 8.70711C21.1054 8.51957 21 8.26522 21 8V2H2V36H28Z" fill="#003D36"/>
</svg>
