<svg width="30" height="30" viewBox="0 0 30 30" fill="none" xmlns="http://www.w3.org/2000/svg">
<path fill-rule="evenodd" clip-rule="evenodd" d="M28 12H27V8C27 7 26 6 25 6H23.3439L20.8425 0.828988C20.493 0.131488 19.668 -0.182012 18.942 0.107488L4 6H2.68887H2C1 6 0 7 0 8V28C0 29 1 29.9995 2 29.9995L25 30C26 30.0005 27 29 27 28V24.1667H28.3333C29.1613 24.1667 30 23.3275 30 22.4995V14C30 13 29 12 28 12Z" fill="#003D36"/>
<path fill-rule="evenodd" clip-rule="evenodd" d="M24.9986 28H2V8H25V12H20C19 12 18.5025 12.4385 18.2337 12.7057L13.9212 16.9914C13.3591 17.55 13.3591 18.4528 13.9212 19.0128L18.5 23.5C18.7688 23.7657 19 24 20 24H24.9999L24.9986 28Z" fill="#F6FBFF"/>
<path fill-rule="evenodd" clip-rule="evenodd" d="M28 22H19.5L15.5 18L19.5 14H28V22Z" fill="#F6FBFF"/>
<path fill-rule="evenodd" clip-rule="evenodd" d="M20 18C20 18.553 20.448 19 21 19C21.552 19 22 18.553 22 18C22 17.449 21.552 17 21 17C20.448 17 20 17.449 20 18Z" fill="#003D36"/>
<path fill-rule="evenodd" clip-rule="evenodd" d="M19.2051 2L21.205 6L8.5 5.99935L19.2051 2Z" fill="#F6FBFF"/>
</svg>
