<svg width="38" height="38" viewBox="0 0 38 38" fill="none" xmlns="http://www.w3.org/2000/svg">
<path d="M3.84853 20.8524C3.82197 20.5178 3.54067 20.2567 3.20528 20.2698L3.17995 20.2708C2.83046 20.2844 2.557 20.579 2.58404 20.9277C2.58534 20.9445 2.58667 20.9613 2.58802 20.9781C2.61612 21.3268 2.9326 21.5746 3.27991 21.533L3.3051 21.53C3.63849 21.4901 3.8751 21.1872 3.84853 20.8524Z" fill="#003D36"/>
<path d="M3.27926 17.7427C2.93193 17.7014 2.61561 17.9495 2.58754 18.2981C2.58618 18.315 2.58485 18.3318 2.58355 18.3486C2.55656 18.6972 2.83002 18.9913 3.17935 19.0049L3.20485 19.0059C3.54046 19.019 3.82201 18.7562 3.84846 18.4214C3.87491 18.0866 3.63777 17.7853 3.30424 17.7457L3.27926 17.7427Z" fill="#003D36"/>
<path d="M9.40137 7.03786C9.18948 6.75972 8.79138 6.70516 8.5217 6.92772C8.50844 6.93867 8.49519 6.94964 8.48196 6.96062C8.21283 7.18413 8.19206 7.58564 8.42587 7.84587L8.44305 7.86498C8.66734 8.11461 9.05179 8.13315 9.31023 7.91907C9.56876 7.7049 9.62026 7.3252 9.41682 7.05815L9.40137 7.03786Z" fill="#003D36"/>
<path d="M4.66797 12.8935C4.3514 12.7441 3.97249 12.8794 3.83581 13.2017C3.82913 13.2174 3.82248 13.2332 3.81585 13.249C3.68025 13.5715 3.84712 13.9373 4.17464 14.0603L4.19827 14.0691C4.51251 14.1871 4.86208 14.0269 4.99277 13.7178C5.12346 13.4086 4.99428 13.0476 4.69074 12.9043L4.66797 12.8935Z" fill="#003D36"/>
<path d="M3.77753 15.2629C3.44151 15.1666 3.0899 15.3606 3.00677 15.7001C3.00276 15.7165 2.99877 15.7329 2.9948 15.7493C2.91263 16.0894 3.13586 16.424 3.47889 16.4931L3.50438 16.4982C3.83314 16.5644 4.15218 16.3509 4.23141 16.025C4.31073 15.6988 4.12528 15.3626 3.80253 15.2701L3.77753 15.2629Z" fill="#003D36"/>
<path d="M7.51819 8.73225C7.26468 8.4915 6.86308 8.50102 6.63209 8.76344C6.62107 8.77596 6.61007 8.78849 6.5991 8.80103C6.36872 9.06434 6.41155 9.46415 6.68355 9.68419L6.70313 9.70004C6.96415 9.9112 7.34473 9.87153 7.56612 9.61912C7.78757 9.36664 7.78008 8.98095 7.53655 8.74969L7.51819 8.73225Z" fill="#003D36"/>
<path d="M11.5282 5.66969C11.3635 5.36117 10.9792 5.24361 10.6775 5.42052C10.6626 5.42923 10.6478 5.43796 10.6329 5.44673C10.3317 5.6246 10.2474 6.01773 10.4369 6.31175L10.4511 6.33368C10.6328 6.6157 11.0109 6.69405 11.3 6.52383C11.5888 6.35378 11.6986 5.98862 11.5407 5.69296L11.5282 5.66969Z" fill="#003D36"/>
<path d="M5.92753 10.6963C5.63901 10.4985 5.2437 10.5715 5.05724 10.8675C5.0481 10.882 5.03898 10.8965 5.02988 10.9111C4.84442 11.2075 4.95049 11.5949 5.25386 11.7687L5.27603 11.7815C5.56727 11.9483 5.93741 11.8471 6.11601 11.5629C6.29465 11.2787 6.22549 10.9005 5.94859 10.7107L5.92753 10.6963Z" fill="#003D36"/>
<path d="M16.5965 34.6441C16.2651 34.5915 15.9464 34.8036 15.8802 35.1325L15.875 35.1581C15.806 35.501 16.0277 35.8362 16.3731 35.8914C16.3901 35.8941 16.4072 35.8968 16.4243 35.8995C16.77 35.9536 17.0851 35.7035 17.1257 35.3559L17.1287 35.3301C17.1676 34.9972 16.9275 34.6967 16.5965 34.6441Z" fill="#003D36"/>
<path d="M22.1619 35.1245C22.0952 34.795 21.7762 34.5828 21.4444 34.6365C21.1128 34.6902 20.8731 34.9924 20.9136 35.3258L20.9166 35.3508C20.9588 35.6983 21.275 35.9469 21.6206 35.8915C21.6369 35.8889 21.6532 35.8863 21.6695 35.8836C22.0147 35.8273 22.2363 35.4918 22.1669 35.1489L22.1619 35.1245Z" fill="#003D36"/>
<path d="M19.6531 35.4287C19.6397 35.0932 19.3559 34.8333 19.0201 34.8341C18.6841 34.8349 18.4021 35.0953 18.3888 35.4311L18.3878 35.4566C18.374 35.8059 18.6455 36.1011 18.9951 36.1013C18.9973 36.1013 18.9996 36.1013 19.0018 36.1013C19.0166 36.1012 19.0313 36.1011 19.046 36.101C19.3959 36.0984 19.6681 35.8031 19.6541 35.4535L19.6531 35.4287Z" fill="#003D36"/>
<path d="M30.4642 7.81153C30.2131 7.56792 29.8117 7.59038 29.578 7.85069L29.5612 7.86941C29.3368 8.11931 29.3592 8.50383 29.5999 8.73808C29.8404 8.97218 30.2232 8.98231 30.4669 8.75153L30.4852 8.73424C30.7393 8.49355 30.751 8.09141 30.5005 7.84688C30.4884 7.83508 30.4763 7.82329 30.4642 7.81153Z" fill="#003D36"/>
<path d="M32.1992 9.78737C31.99 9.50701 31.5901 9.46534 31.3182 9.68537L31.2988 9.70105C31.0377 9.91231 30.9973 10.2935 31.1979 10.563C31.3985 10.8324 31.7769 10.9049 32.0539 10.7149L32.0745 10.7008C32.3629 10.503 32.4372 10.1081 32.2288 9.82719C32.219 9.81391 32.2091 9.80063 32.1992 9.78737Z" fill="#003D36"/>
<path d="M35.4657 19.6155C35.4653 19.2664 35.17 18.9949 34.8211 19.0085L34.7884 19.0098C34.4565 19.0228 34.199 19.3028 34.199 19.635C34.199 19.9746 34.4623 20.2607 34.8017 20.2739L34.8205 20.2746C35.1696 20.2883 35.465 20.0165 35.4657 19.6671C35.4657 19.656 35.4657 19.6448 35.4657 19.6337C35.4657 19.6276 35.4657 19.6216 35.4657 19.6155Z" fill="#003D36"/>
<path d="M33.6025 12.0139C33.4403 11.7037 33.052 11.5991 32.7484 11.7731L32.7262 11.7858C32.4349 11.9528 32.3352 12.3239 32.4903 12.6217C32.6454 12.9195 33.0066 13.0499 33.3102 12.9066L33.3335 12.8956C33.6499 12.7462 33.7864 12.3682 33.6253 12.0577C33.6177 12.0431 33.6101 12.0285 33.6025 12.0139Z" fill="#003D36"/>
<path d="M34.6288 14.4354C34.5183 14.1034 34.1519 13.9382 33.8245 14.0613L33.8005 14.0703C33.4864 14.1885 33.3285 14.5386 33.4338 14.8573C33.539 15.1759 33.8742 15.3627 34.1967 15.2703L34.2217 15.2631C34.5582 15.1667 34.754 14.8154 34.6445 14.483C34.6393 14.4671 34.634 14.4512 34.6288 14.4354Z" fill="#003D36"/>
<path d="M35.2561 16.9932C35.2004 16.6481 34.8655 16.4264 34.5228 16.4953L34.4976 16.5004C34.1686 16.5665 33.9569 16.8873 34.0098 17.2187C34.0627 17.5504 34.3639 17.7888 34.6975 17.7491L34.7227 17.7461C35.0697 17.7049 35.3188 17.39 35.2643 17.0448C35.2616 17.0276 35.2589 17.0104 35.2561 16.9932Z" fill="#003D36"/>
<path d="M28.4345 6.13622C28.1478 5.93561 27.755 6.0215 27.5655 6.31572L27.5518 6.33711C27.37 6.61941 27.4511 6.99393 27.7258 7.18697C28.0007 7.38014 28.3829 7.33078 28.5867 7.06367L28.6023 7.04326C28.8145 6.76515 28.7619 6.36666 28.4759 6.16524C28.4621 6.15554 28.4483 6.14587 28.4345 6.13622Z" fill="#003D36"/>
<path d="M26.1642 4.80142C25.8495 4.64917 25.4759 4.79671 25.3359 5.11702L25.3256 5.14059C25.1911 5.44824 25.3314 5.80537 25.6334 5.95217C25.9353 6.09895 26.3039 5.98926 26.4627 5.69348L26.4749 5.67076C26.6403 5.36263 26.5254 4.97755 26.2111 4.82421C26.1955 4.81659 26.1798 4.80899 26.1642 4.80142Z" fill="#003D36"/>
<path d="M8 29H7C2 29 0 32.2282 0 34.923V37.3845C0 37.7248 0.28 37.9999 0.625 37.9999H14.375C14.72 37.9999 15 37.7248 15 37.3845V34.923C15 32.2282 13 29 8 29ZM13 36H2V34.923C2 32.5 4 31 6.5 31H8.5C12 31 13 33 13 34.923V36Z" fill="#003D36"/>
<circle cx="7.5" cy="26.5" r="3.5" stroke="#003D36" stroke-width="2"/>
<path d="M31 29H30C25 29 23 32.2282 23 34.923V37.3845C23 37.7248 23.28 37.9999 23.625 37.9999H37.375C37.72 37.9999 38 37.7248 38 37.3845V34.923C38 32.2282 36 29 31 29ZM36 36H25V34.923C25 32.5 27 31 29.5 31H31.5C35 31 36 33 36 34.923V36Z" fill="#003D36"/>
<circle cx="30.5" cy="26.5" r="3.5" stroke="#003D36" stroke-width="2"/>
<path d="M19 7H18C13 7 11 10.2282 11 12.923V15.3845C11 15.7248 11.28 15.9999 11.625 15.9999H25.375C25.72 15.9999 26 15.7248 26 15.3845V12.923C26 10.2282 24 7 19 7ZM24 14H13V12.923C13 10.5 15 9 17.5 9H19.5C23 9 24 11 24 12.923V14Z" fill="#003D36"/>
<circle cx="18.5" cy="4.5" r="3.5" stroke="#003D36" stroke-width="2"/>
</svg>
