<svg width="37" height="41" fill="none" xmlns="http://www.w3.org/2000/svg"><mask id="a" fill="#fff"><rect x=".5" y=".5" width="36" height="17" rx="1"/></mask><rect x=".5" y=".5" width="36" height="17" rx="1" stroke="#003D36" stroke-width="3.6" stroke-linecap="round" mask="url(#a)"/><mask id="b" fill="#fff"><rect x=".5" y="20.5" width="21" height="20" rx="1"/></mask><rect x=".5" y="20.5" width="21" height="20" rx="1" stroke="#003D36" stroke-width="3.6" stroke-linecap="round" mask="url(#b)"/><mask id="c" fill="#fff"><rect x="24.5" y="20.5" width="12" height="20" rx="1"/></mask><rect x="24.5" y="20.5" width="12" height="20" rx="1" stroke="#003D36" stroke-width="3.6" stroke-linecap="round" mask="url(#c)"/><rect x="4.5" y="25.5" width="7.538" height="2.154" rx="1.077" fill="#003D36"/><rect x="11.5" y="8.5" width="4" height="2" rx="1" transform="rotate(90 11.5 8.5)" fill="#003D36"/><rect x="15.5" y="6.5" width="6" height="2" rx="1" transform="rotate(90 15.5 6.5)" fill="#003D36"/><rect x="19.5" y="4.5" width="8" height="2" rx="1" transform="rotate(90 19.5 4.5)" fill="#003D36"/><rect x="23.5" y="7.5" width="5" height="2" rx="1" transform="rotate(90 23.5 7.5)" fill="#003D36"/><rect x="27.5" y="9.5" width="3" height="2" rx="1" transform="rotate(90 27.5 9.5)" fill="#003D36"/><rect x="6.5" y="29.5" width="7.538" height="2.154" rx="1.077" fill="#003D36"/><rect x="9.5" y="33.5" width="7.538" height="2.154" rx="1.077" fill="#003D36"/></svg>